<svg width="35" height="35" viewBox="0 0 35 35" fill="none" xmlns="http://www.w3.org/2000/svg">
<rect width="35" height="35" rx="3" fill="#A68A56"/>
<path d="M10.1354 26.3229H11.8398L24.3724 13.7904L22.668 12.0859L10.1354 24.6185V26.3229ZM7.72916 28.7292V23.6159L24.3724 6.97267C24.6175 6.72759 24.883 6.54934 25.1691 6.43794C25.455 6.32654 25.7558 6.27084 26.0715 6.27084C26.3869 6.27084 26.6895 6.32654 26.9792 6.43794C27.2688 6.54934 27.5362 6.72759 27.7812 6.97267L29.4857 8.67709C29.7307 8.92217 29.909 9.18954 30.0204 9.47918C30.1318 9.76882 30.1875 10.0645 30.1875 10.3661C30.1875 10.6881 30.1316 10.9949 30.0197 11.2865C29.9079 11.5782 29.7299 11.8447 29.4857 12.0859L12.8424 28.7292H7.72916ZM23.5051 12.9532L22.668 12.0859L24.3724 13.7904L23.5051 12.9532Z" fill="white"/>
</svg>
