<svg width="35" height="35" viewBox="0 0 35 35" fill="none" xmlns="http://www.w3.org/2000/svg">
<rect width="35" height="35" rx="3" fill="#0D1826"/>
<path d="M11.8854 28.7292C11.2237 28.7292 10.6572 28.4936 10.186 28.0223C9.71478 27.5511 9.47917 26.9846 9.47917 26.3229V10.2813H7.875V7.87501H14.2917V6.27084H20.7083V7.87501H27.125V10.2813H25.5208V26.3086C25.5208 26.9865 25.2852 27.5595 24.814 28.0274C24.3428 28.4952 23.7763 28.7292 23.1146 28.7292H11.8854ZM23.1146 10.2813H11.8854V26.3229H23.1146V10.2813ZM14.2917 23.9167H16.6979V12.6875H14.2917V23.9167ZM18.3021 23.9167H20.7083V12.6875H18.3021V23.9167Z" fill="white"/>
</svg>
